<mxfile host="app.diagrams.net" modified="2024-02-07T14:38:04.992Z" agent="Mozilla/5.0 (X11; Linux x86_64; rv:122.0) Gecko/20100101 Firefox/122.0" etag="tPzEocyvViULwJI2ULYK" version="23.1.1" type="google">
  <diagram id="C5RBs43oDa-KdzZeNtuy" name="Page-1">
    <mxGraphModel grid="1" page="1" gridSize="10" guides="1" tooltips="1" connect="1" arrows="1" fold="1" pageScale="1" pageWidth="827" pageHeight="1169" math="0" shadow="0">
      <root>
        <mxCell id="WIyWlLk6GJQsqaUBKTNV-0" />
        <mxCell id="WIyWlLk6GJQsqaUBKTNV-1" parent="WIyWlLk6GJQsqaUBKTNV-0" />
        <mxCell id="83D1bbOoc2XjOviD4N3p-0" value="" style="endArrow=openThin;html=1;rounded=0;entryX=0;entryY=0.5;entryDx=0;entryDy=0;endFill=0;" edge="1" parent="WIyWlLk6GJQsqaUBKTNV-1" target="83D1bbOoc2XjOviD4N3p-1">
          <mxGeometry width="50" height="50" relative="1" as="geometry">
            <mxPoint x="340" y="210" as="sourcePoint" />
            <mxPoint x="220" y="210" as="targetPoint" />
          </mxGeometry>
        </mxCell>
        <mxCell id="83D1bbOoc2XjOviD4N3p-11" value="yes" style="edgeStyle=orthogonalEdgeStyle;rounded=0;orthogonalLoop=1;jettySize=auto;html=1;labelBorderColor=none;endArrow=openThin;endFill=0;entryX=0.5;entryY=0;entryDx=0;entryDy=0;exitX=1;exitY=0.5;exitDx=0;exitDy=0;" edge="1" parent="WIyWlLk6GJQsqaUBKTNV-1" source="83D1bbOoc2XjOviD4N3p-1" target="83D1bbOoc2XjOviD4N3p-10">
          <mxGeometry x="-0.7037" y="10" relative="1" as="geometry">
            <mxPoint as="offset" />
          </mxGeometry>
        </mxCell>
        <mxCell id="83D1bbOoc2XjOviD4N3p-43" style="edgeStyle=orthogonalEdgeStyle;rounded=0;orthogonalLoop=1;jettySize=auto;html=1;entryX=0.5;entryY=0;entryDx=0;entryDy=0;labelBorderColor=none;fontSize=9;endArrow=openThin;endFill=0;" edge="1" parent="WIyWlLk6GJQsqaUBKTNV-1" source="83D1bbOoc2XjOviD4N3p-1" target="83D1bbOoc2XjOviD4N3p-42">
          <mxGeometry relative="1" as="geometry">
            <Array as="points">
              <mxPoint x="885" y="210" />
            </Array>
          </mxGeometry>
        </mxCell>
        <mxCell id="83D1bbOoc2XjOviD4N3p-1" value="Cookie notice detected" style="rhombus;whiteSpace=wrap;html=1;shadow=0;fontFamily=Helvetica;fontSize=12;align=center;strokeWidth=1;spacing=6;spacingTop=5;" vertex="1" parent="WIyWlLk6GJQsqaUBKTNV-1">
          <mxGeometry x="360" y="170" width="110" height="80" as="geometry" />
        </mxCell>
        <mxCell id="83D1bbOoc2XjOviD4N3p-27" value="yes" style="edgeStyle=orthogonalEdgeStyle;rounded=0;orthogonalLoop=1;jettySize=auto;html=1;labelBorderColor=none;endArrow=openThin;endFill=0;entryX=0.5;entryY=0;entryDx=0;entryDy=0;" edge="1" parent="WIyWlLk6GJQsqaUBKTNV-1" source="83D1bbOoc2XjOviD4N3p-10" target="83D1bbOoc2XjOviD4N3p-26">
          <mxGeometry x="-0.4286" y="10" relative="1" as="geometry">
            <Array as="points">
              <mxPoint x="565" y="270" />
            </Array>
            <mxPoint as="offset" />
          </mxGeometry>
        </mxCell>
        <mxCell id="83D1bbOoc2XjOviD4N3p-56" style="edgeStyle=orthogonalEdgeStyle;rounded=0;orthogonalLoop=1;jettySize=auto;html=1;entryX=0.5;entryY=0;entryDx=0;entryDy=0;labelBorderColor=none;fontSize=11;endArrow=openThin;endFill=0;" edge="1" parent="WIyWlLk6GJQsqaUBKTNV-1" source="83D1bbOoc2XjOviD4N3p-10" target="83D1bbOoc2XjOviD4N3p-54">
          <mxGeometry relative="1" as="geometry">
            <Array as="points">
              <mxPoint x="805" y="270" />
            </Array>
          </mxGeometry>
        </mxCell>
        <mxCell id="Hsx213mgKQrYYSfcQBO_-1" style="edgeStyle=orthogonalEdgeStyle;rounded=0;orthogonalLoop=1;jettySize=auto;html=1;entryX=0.5;entryY=0;entryDx=0;entryDy=0;endArrow=openThin;endFill=0;" edge="1" parent="WIyWlLk6GJQsqaUBKTNV-1" source="83D1bbOoc2XjOviD4N3p-10" target="Hsx213mgKQrYYSfcQBO_-0">
          <mxGeometry relative="1" as="geometry">
            <Array as="points">
              <mxPoint x="645" y="270" />
            </Array>
          </mxGeometry>
        </mxCell>
        <mxCell id="Hsx213mgKQrYYSfcQBO_-7" style="edgeStyle=orthogonalEdgeStyle;rounded=0;orthogonalLoop=1;jettySize=auto;html=1;entryX=0.5;entryY=0;entryDx=0;entryDy=0;fontSize=10;endArrow=openThin;endFill=0;" edge="1" parent="WIyWlLk6GJQsqaUBKTNV-1" source="83D1bbOoc2XjOviD4N3p-10" target="Hsx213mgKQrYYSfcQBO_-6">
          <mxGeometry relative="1" as="geometry">
            <Array as="points">
              <mxPoint x="725" y="270" />
            </Array>
          </mxGeometry>
        </mxCell>
        <mxCell id="83D1bbOoc2XjOviD4N3p-10" value="Reject button detected" style="rhombus;whiteSpace=wrap;html=1;shadow=0;fontFamily=Helvetica;fontSize=12;align=center;strokeWidth=1;spacing=6;spacingTop=5;verticalAlign=middle;" vertex="1" parent="WIyWlLk6GJQsqaUBKTNV-1">
          <mxGeometry x="440" y="230.01" width="110" height="80" as="geometry" />
        </mxCell>
        <mxCell id="83D1bbOoc2XjOviD4N3p-29" value="no" style="edgeStyle=orthogonalEdgeStyle;rounded=0;orthogonalLoop=1;jettySize=auto;html=1;labelBorderColor=none;endArrow=openThin;endFill=0;" edge="1" parent="WIyWlLk6GJQsqaUBKTNV-1" source="83D1bbOoc2XjOviD4N3p-26" target="83D1bbOoc2XjOviD4N3p-28">
          <mxGeometry x="0.6667" y="-15" relative="1" as="geometry">
            <mxPoint as="offset" />
          </mxGeometry>
        </mxCell>
        <mxCell id="83D1bbOoc2XjOviD4N3p-26" value="Reject button&lt;br&gt; at first layer" style="rhombus;whiteSpace=wrap;html=1;shadow=0;fontFamily=Helvetica;fontSize=12;align=center;strokeWidth=1;spacing=6;spacingTop=3;verticalAlign=middle;" vertex="1" parent="WIyWlLk6GJQsqaUBKTNV-1">
          <mxGeometry x="510" y="280" width="110" height="80" as="geometry" />
        </mxCell>
        <mxCell id="83D1bbOoc2XjOviD4N3p-28" value="Obstruction" style="rounded=1;whiteSpace=wrap;html=1;shadow=0;strokeWidth=1;spacing=6;spacingTop=2;fillColor=#ffe6cc;strokeColor=#d79b00;verticalAlign=middle;" vertex="1" parent="WIyWlLk6GJQsqaUBKTNV-1">
          <mxGeometry x="530" y="420" width="70" height="40" as="geometry" />
        </mxCell>
        <mxCell id="83D1bbOoc2XjOviD4N3p-45" value="&lt;font style=&quot;font-size: 11px;&quot;&gt;yes&lt;/font&gt;" style="edgeStyle=orthogonalEdgeStyle;rounded=0;orthogonalLoop=1;jettySize=auto;html=1;labelBorderColor=none;fontSize=9;endArrow=openThin;endFill=0;" edge="1" parent="WIyWlLk6GJQsqaUBKTNV-1" source="83D1bbOoc2XjOviD4N3p-42" target="83D1bbOoc2XjOviD4N3p-44">
          <mxGeometry x="-0.5944" y="15" relative="1" as="geometry">
            <mxPoint as="offset" />
          </mxGeometry>
        </mxCell>
        <mxCell id="83D1bbOoc2XjOviD4N3p-42" value="&lt;div style=&quot;font-size: 11px;&quot;&gt;Website accessible &lt;br&gt;only after interaction with the notice&lt;br style=&quot;font-size: 11px;&quot;&gt;&lt;/div&gt;" style="rhombus;whiteSpace=wrap;html=1;shadow=0;fontFamily=Helvetica;fontSize=11;align=center;strokeWidth=1;spacing=6;spacingTop=10;verticalAlign=middle;" vertex="1" parent="WIyWlLk6GJQsqaUBKTNV-1">
          <mxGeometry x="820" y="230.01" width="130" height="94.55" as="geometry" />
        </mxCell>
        <mxCell id="83D1bbOoc2XjOviD4N3p-44" value="Forced action" style="rounded=1;whiteSpace=wrap;html=1;shadow=0;strokeWidth=1;spacing=6;spacingTop=-4;fillColor=#ffe6cc;strokeColor=#d79b00;verticalAlign=top;" vertex="1" parent="WIyWlLk6GJQsqaUBKTNV-1">
          <mxGeometry x="850" y="420" width="70" height="40" as="geometry" />
        </mxCell>
        <mxCell id="83D1bbOoc2XjOviD4N3p-46" value="yes" style="edgeStyle=orthogonalEdgeStyle;rounded=0;orthogonalLoop=1;jettySize=auto;html=1;labelBorderColor=none;endArrow=openThin;endFill=0;" edge="1" parent="WIyWlLk6GJQsqaUBKTNV-1">
          <mxGeometry x="0.6667" y="-15" relative="1" as="geometry">
            <mxPoint as="offset" />
            <mxPoint x="685" y="380" as="targetPoint" />
          </mxGeometry>
        </mxCell>
        <mxCell id="83D1bbOoc2XjOviD4N3p-53" value="yes" style="edgeStyle=orthogonalEdgeStyle;rounded=0;orthogonalLoop=1;jettySize=auto;html=1;labelBorderColor=none;endArrow=openThin;endFill=0;" edge="1" parent="WIyWlLk6GJQsqaUBKTNV-1" source="83D1bbOoc2XjOviD4N3p-54" target="83D1bbOoc2XjOviD4N3p-55">
          <mxGeometry x="0.6667" y="-15" relative="1" as="geometry">
            <mxPoint as="offset" />
          </mxGeometry>
        </mxCell>
        <mxCell id="83D1bbOoc2XjOviD4N3p-54" value="Accept and reject styles mismatch" style="rhombus;whiteSpace=wrap;html=1;shadow=0;fontFamily=Helvetica;fontSize=11;align=center;strokeWidth=1;spacing=6;spacingTop=3;verticalAlign=middle;" vertex="1" parent="WIyWlLk6GJQsqaUBKTNV-1">
          <mxGeometry x="750" y="320" width="110" height="80" as="geometry" />
        </mxCell>
        <mxCell id="83D1bbOoc2XjOviD4N3p-55" value="Interface interference" style="rounded=1;whiteSpace=wrap;html=1;shadow=0;strokeWidth=1;spacing=6;spacingTop=2;fillColor=#ffe6cc;strokeColor=#d79b00;verticalAlign=middle;" vertex="1" parent="WIyWlLk6GJQsqaUBKTNV-1">
          <mxGeometry x="770" y="420" width="70" height="40" as="geometry" />
        </mxCell>
        <mxCell id="Hsx213mgKQrYYSfcQBO_-3" value="yes" style="edgeStyle=orthogonalEdgeStyle;rounded=0;orthogonalLoop=1;jettySize=auto;html=1;fontSize=10;endArrow=openThin;endFill=0;" edge="1" parent="WIyWlLk6GJQsqaUBKTNV-1" source="Hsx213mgKQrYYSfcQBO_-0" target="Hsx213mgKQrYYSfcQBO_-2">
          <mxGeometry x="0.6667" y="-15" relative="1" as="geometry">
            <mxPoint as="offset" />
          </mxGeometry>
        </mxCell>
        <mxCell id="Hsx213mgKQrYYSfcQBO_-0" value="&lt;font style=&quot;font-size: 10px;&quot;&gt;Notice reappears&lt;br&gt;after clicking &amp;amp;&lt;br&gt;reloading&lt;/font&gt;" style="rhombus;whiteSpace=wrap;html=1;shadow=0;fontFamily=Helvetica;fontSize=12;align=center;strokeWidth=1;spacing=6;spacingTop=11;verticalAlign=middle;" vertex="1" parent="WIyWlLk6GJQsqaUBKTNV-1">
          <mxGeometry x="590" y="320" width="110" height="80" as="geometry" />
        </mxCell>
        <mxCell id="Hsx213mgKQrYYSfcQBO_-2" value="Nagging" style="rounded=1;whiteSpace=wrap;html=1;shadow=0;strokeWidth=1;spacing=6;spacingTop=2;fillColor=#ffe6cc;strokeColor=#d79b00;verticalAlign=middle;" vertex="1" parent="WIyWlLk6GJQsqaUBKTNV-1">
          <mxGeometry x="610" y="420" width="70" height="40" as="geometry" />
        </mxCell>
        <mxCell id="Hsx213mgKQrYYSfcQBO_-6" value="&lt;font style=&quot;font-size: 11px;&quot;&gt;Notice&lt;br&gt; contains ‘legitimate &lt;br&gt;interest’&lt;br&gt;&lt;/font&gt;" style="rhombus;whiteSpace=wrap;html=1;shadow=0;fontFamily=Helvetica;fontSize=12;align=center;strokeWidth=1;spacing=6;spacingTop=0;verticalAlign=middle;" vertex="1" parent="WIyWlLk6GJQsqaUBKTNV-1">
          <mxGeometry x="670" y="280" width="110" height="80" as="geometry" />
        </mxCell>
        <mxCell id="Hsx213mgKQrYYSfcQBO_-8" value="yes" style="edgeStyle=orthogonalEdgeStyle;rounded=0;orthogonalLoop=1;jettySize=auto;html=1;fontSize=10;endArrow=openThin;endFill=0;exitX=0.5;exitY=1;exitDx=0;exitDy=0;" edge="1" parent="WIyWlLk6GJQsqaUBKTNV-1" source="Hsx213mgKQrYYSfcQBO_-6" target="Hsx213mgKQrYYSfcQBO_-9">
          <mxGeometry x="0.6667" y="-15" relative="1" as="geometry">
            <mxPoint x="725" y="400" as="sourcePoint" />
            <mxPoint as="offset" />
          </mxGeometry>
        </mxCell>
        <mxCell id="Hsx213mgKQrYYSfcQBO_-9" value="Sneaking" style="rounded=1;whiteSpace=wrap;html=1;shadow=0;strokeWidth=1;spacing=6;spacingTop=1;fillColor=#ffe6cc;strokeColor=#d79b00;verticalAlign=middle;" vertex="1" parent="WIyWlLk6GJQsqaUBKTNV-1">
          <mxGeometry x="690" y="420" width="70" height="40" as="geometry" />
        </mxCell>
        <mxCell id="tprDGqVjkFOQ8vDqX08_-0" value="" style="endArrow=openThin;html=1;rounded=0;entryX=0;entryY=0.5;entryDx=0;entryDy=0;endFill=0;" edge="1" parent="WIyWlLk6GJQsqaUBKTNV-1" target="tprDGqVjkFOQ8vDqX08_-3">
          <mxGeometry width="50" height="50" relative="1" as="geometry">
            <mxPoint x="980" y="210" as="sourcePoint" />
            <mxPoint x="860" y="210" as="targetPoint" />
          </mxGeometry>
        </mxCell>
        <mxCell id="tprDGqVjkFOQ8vDqX08_-1" value="yes" style="edgeStyle=orthogonalEdgeStyle;rounded=0;orthogonalLoop=1;jettySize=auto;html=1;labelBorderColor=none;endArrow=openThin;endFill=0;entryX=0.5;entryY=0;entryDx=0;entryDy=0;exitX=1;exitY=0.5;exitDx=0;exitDy=0;" edge="1" parent="WIyWlLk6GJQsqaUBKTNV-1" source="tprDGqVjkFOQ8vDqX08_-3" target="tprDGqVjkFOQ8vDqX08_-6">
          <mxGeometry x="-0.7037" y="10" relative="1" as="geometry">
            <mxPoint as="offset" />
          </mxGeometry>
        </mxCell>
        <mxCell id="tprDGqVjkFOQ8vDqX08_-2" style="edgeStyle=orthogonalEdgeStyle;rounded=0;orthogonalLoop=1;jettySize=auto;html=1;entryX=0.5;entryY=0;entryDx=0;entryDy=0;labelBorderColor=none;fontSize=9;endArrow=openThin;endFill=0;" edge="1" parent="WIyWlLk6GJQsqaUBKTNV-1" source="tprDGqVjkFOQ8vDqX08_-3" target="tprDGqVjkFOQ8vDqX08_-11">
          <mxGeometry relative="1" as="geometry">
            <Array as="points">
              <mxPoint x="1415" y="210" />
            </Array>
          </mxGeometry>
        </mxCell>
        <mxCell id="tprDGqVjkFOQ8vDqX08_-3" value="Cookie notice detected" style="rhombus;whiteSpace=wrap;html=1;shadow=0;fontFamily=Helvetica;fontSize=12;align=center;strokeWidth=1;spacing=6;spacingTop=5;" vertex="1" parent="WIyWlLk6GJQsqaUBKTNV-1">
          <mxGeometry x="1000" y="170" width="110" height="80" as="geometry" />
        </mxCell>
        <mxCell id="tprDGqVjkFOQ8vDqX08_-4" value="yes" style="edgeStyle=orthogonalEdgeStyle;rounded=0;orthogonalLoop=1;jettySize=auto;html=1;labelBorderColor=none;endArrow=openThin;endFill=0;entryX=0.5;entryY=0;entryDx=0;entryDy=0;" edge="1" parent="WIyWlLk6GJQsqaUBKTNV-1" source="tprDGqVjkFOQ8vDqX08_-6" target="tprDGqVjkFOQ8vDqX08_-8">
          <mxGeometry x="-0.4286" y="10" relative="1" as="geometry">
            <Array as="points">
              <mxPoint x="1205" y="270" />
            </Array>
            <mxPoint as="offset" />
          </mxGeometry>
        </mxCell>
        <mxCell id="tprDGqVjkFOQ8vDqX08_-5" style="edgeStyle=orthogonalEdgeStyle;rounded=0;orthogonalLoop=1;jettySize=auto;html=1;entryX=0.5;entryY=0;entryDx=0;entryDy=0;labelBorderColor=none;fontSize=11;endArrow=openThin;endFill=0;" edge="1" parent="WIyWlLk6GJQsqaUBKTNV-1" source="tprDGqVjkFOQ8vDqX08_-6" target="tprDGqVjkFOQ8vDqX08_-14">
          <mxGeometry relative="1" as="geometry">
            <Array as="points">
              <mxPoint x="1325" y="270" />
            </Array>
          </mxGeometry>
        </mxCell>
        <mxCell id="tprDGqVjkFOQ8vDqX08_-6" value="Reject button detected" style="rhombus;whiteSpace=wrap;html=1;shadow=0;fontFamily=Helvetica;fontSize=12;align=center;strokeWidth=1;spacing=6;spacingTop=5;verticalAlign=middle;" vertex="1" parent="WIyWlLk6GJQsqaUBKTNV-1">
          <mxGeometry x="1080" y="230.01" width="110" height="80" as="geometry" />
        </mxCell>
        <mxCell id="tprDGqVjkFOQ8vDqX08_-7" value="no" style="edgeStyle=orthogonalEdgeStyle;rounded=0;orthogonalLoop=1;jettySize=auto;html=1;labelBorderColor=none;endArrow=openThin;endFill=0;" edge="1" parent="WIyWlLk6GJQsqaUBKTNV-1" source="tprDGqVjkFOQ8vDqX08_-8" target="tprDGqVjkFOQ8vDqX08_-9">
          <mxGeometry x="0.6667" y="-15" relative="1" as="geometry">
            <mxPoint as="offset" />
          </mxGeometry>
        </mxCell>
        <mxCell id="tprDGqVjkFOQ8vDqX08_-8" value="Reject button&lt;br&gt; at first layer" style="rhombus;whiteSpace=wrap;html=1;shadow=0;fontFamily=Helvetica;fontSize=12;align=center;strokeWidth=1;spacing=6;spacingTop=3;verticalAlign=middle;" vertex="1" parent="WIyWlLk6GJQsqaUBKTNV-1">
          <mxGeometry x="1150" y="280" width="110" height="80" as="geometry" />
        </mxCell>
        <mxCell id="tprDGqVjkFOQ8vDqX08_-9" value="Obstruction" style="rounded=1;whiteSpace=wrap;html=1;shadow=0;strokeWidth=1;spacing=6;spacingTop=2;fillColor=#ffe6cc;strokeColor=#d79b00;verticalAlign=middle;" vertex="1" parent="WIyWlLk6GJQsqaUBKTNV-1">
          <mxGeometry x="1170" y="380" width="70" height="40" as="geometry" />
        </mxCell>
        <mxCell id="tprDGqVjkFOQ8vDqX08_-10" value="&lt;font style=&quot;font-size: 11px;&quot;&gt;yes&lt;/font&gt;" style="edgeStyle=orthogonalEdgeStyle;rounded=0;orthogonalLoop=1;jettySize=auto;html=1;labelBorderColor=none;fontSize=9;endArrow=openThin;endFill=0;" edge="1" parent="WIyWlLk6GJQsqaUBKTNV-1" source="tprDGqVjkFOQ8vDqX08_-11" target="tprDGqVjkFOQ8vDqX08_-12">
          <mxGeometry x="-0.7143" y="-15" relative="1" as="geometry">
            <mxPoint as="offset" />
          </mxGeometry>
        </mxCell>
        <mxCell id="tprDGqVjkFOQ8vDqX08_-11" value="&lt;div style=&quot;font-size: 11px;&quot;&gt;Website accessible &lt;br&gt;only after interaction with the notice&lt;br style=&quot;font-size: 11px;&quot;&gt;&lt;/div&gt;" style="rhombus;whiteSpace=wrap;html=1;shadow=0;fontFamily=Helvetica;fontSize=11;align=center;strokeWidth=1;spacing=6;spacingTop=10;verticalAlign=middle;" vertex="1" parent="WIyWlLk6GJQsqaUBKTNV-1">
          <mxGeometry x="1350" y="222.73" width="130" height="94.55" as="geometry" />
        </mxCell>
        <mxCell id="tprDGqVjkFOQ8vDqX08_-12" value="Forced action" style="rounded=1;whiteSpace=wrap;html=1;shadow=0;strokeWidth=1;spacing=6;spacingTop=-4;fillColor=#ffe6cc;strokeColor=#d79b00;verticalAlign=top;" vertex="1" parent="WIyWlLk6GJQsqaUBKTNV-1">
          <mxGeometry x="1380" y="380" width="70" height="40" as="geometry" />
        </mxCell>
        <mxCell id="tprDGqVjkFOQ8vDqX08_-13" value="no" style="edgeStyle=orthogonalEdgeStyle;rounded=0;orthogonalLoop=1;jettySize=auto;html=1;labelBorderColor=none;endArrow=openThin;endFill=0;" edge="1" parent="WIyWlLk6GJQsqaUBKTNV-1" source="tprDGqVjkFOQ8vDqX08_-14" target="tprDGqVjkFOQ8vDqX08_-15">
          <mxGeometry x="0.6667" y="-15" relative="1" as="geometry">
            <mxPoint as="offset" />
          </mxGeometry>
        </mxCell>
        <mxCell id="tprDGqVjkFOQ8vDqX08_-14" value="Accept and reject styles mismatch" style="rhombus;whiteSpace=wrap;html=1;shadow=0;fontFamily=Helvetica;fontSize=11;align=center;strokeWidth=1;spacing=6;spacingTop=3;verticalAlign=middle;" vertex="1" parent="WIyWlLk6GJQsqaUBKTNV-1">
          <mxGeometry x="1270" y="280" width="110" height="80" as="geometry" />
        </mxCell>
        <mxCell id="tprDGqVjkFOQ8vDqX08_-15" value="Interface interference" style="rounded=1;whiteSpace=wrap;html=1;shadow=0;strokeWidth=1;spacing=6;spacingTop=2;fillColor=#ffe6cc;strokeColor=#d79b00;verticalAlign=middle;" vertex="1" parent="WIyWlLk6GJQsqaUBKTNV-1">
          <mxGeometry x="1290" y="380" width="70" height="40" as="geometry" />
        </mxCell>
        <mxCell id="auCAE6yCjne6HjzLzBqj-0" value="" style="edgeStyle=orthogonalEdgeStyle;rounded=0;orthogonalLoop=1;jettySize=auto;html=1;endArrow=openThin;endFill=0;" edge="1" parent="WIyWlLk6GJQsqaUBKTNV-1" target="auCAE6yCjne6HjzLzBqj-6">
          <mxGeometry relative="1" as="geometry">
            <mxPoint x="400" y="540" as="sourcePoint" />
          </mxGeometry>
        </mxCell>
        <mxCell id="auCAE6yCjne6HjzLzBqj-1" value="no" style="edgeStyle=orthogonalEdgeStyle;rounded=0;orthogonalLoop=1;jettySize=auto;html=1;endArrow=openThin;endFill=0;labelBorderColor=none;" edge="1" parent="WIyWlLk6GJQsqaUBKTNV-1" source="auCAE6yCjne6HjzLzBqj-6" target="auCAE6yCjne6HjzLzBqj-32">
          <mxGeometry x="-0.7778" y="-15" relative="1" as="geometry">
            <mxPoint as="offset" />
          </mxGeometry>
        </mxCell>
        <mxCell id="auCAE6yCjne6HjzLzBqj-2" value="yes" style="edgeStyle=orthogonalEdgeStyle;rounded=0;orthogonalLoop=1;jettySize=auto;html=1;labelBorderColor=none;endArrow=openThin;endFill=0;entryX=0.5;entryY=0;entryDx=0;entryDy=0;" edge="1" parent="WIyWlLk6GJQsqaUBKTNV-1" source="auCAE6yCjne6HjzLzBqj-6" target="auCAE6yCjne6HjzLzBqj-10">
          <mxGeometry x="-0.7037" y="10" relative="1" as="geometry">
            <mxPoint as="offset" />
          </mxGeometry>
        </mxCell>
        <mxCell id="auCAE6yCjne6HjzLzBqj-3" style="edgeStyle=orthogonalEdgeStyle;rounded=0;orthogonalLoop=1;jettySize=auto;html=1;entryX=0.5;entryY=0;entryDx=0;entryDy=0;labelBorderColor=none;endArrow=openThin;endFill=0;" edge="1" parent="WIyWlLk6GJQsqaUBKTNV-1" source="auCAE6yCjne6HjzLzBqj-6" target="auCAE6yCjne6HjzLzBqj-18">
          <mxGeometry relative="1" as="geometry" />
        </mxCell>
        <mxCell id="auCAE6yCjne6HjzLzBqj-4" style="edgeStyle=orthogonalEdgeStyle;rounded=0;orthogonalLoop=1;jettySize=auto;html=1;entryX=0.5;entryY=0;entryDx=0;entryDy=0;labelBorderColor=none;fontSize=9;endArrow=openThin;endFill=0;" edge="1" parent="WIyWlLk6GJQsqaUBKTNV-1" source="auCAE6yCjne6HjzLzBqj-6" target="auCAE6yCjne6HjzLzBqj-25">
          <mxGeometry relative="1" as="geometry" />
        </mxCell>
        <mxCell id="auCAE6yCjne6HjzLzBqj-5" style="edgeStyle=orthogonalEdgeStyle;rounded=0;orthogonalLoop=1;jettySize=auto;html=1;entryX=0.5;entryY=0;entryDx=0;entryDy=0;labelBorderColor=none;fontSize=9;endArrow=openThin;endFill=0;" edge="1" parent="WIyWlLk6GJQsqaUBKTNV-1" source="auCAE6yCjne6HjzLzBqj-6" target="auCAE6yCjne6HjzLzBqj-28">
          <mxGeometry relative="1" as="geometry" />
        </mxCell>
        <mxCell id="auCAE6yCjne6HjzLzBqj-6" value="Cookie notice detected" style="rhombus;whiteSpace=wrap;html=1;shadow=0;fontFamily=Helvetica;fontSize=12;align=center;strokeWidth=1;spacing=6;spacingTop=5;" vertex="1" parent="WIyWlLk6GJQsqaUBKTNV-1">
          <mxGeometry x="410" y="500" width="110" height="80" as="geometry" />
        </mxCell>
        <mxCell id="auCAE6yCjne6HjzLzBqj-7" value="Missing &lt;br&gt;notice" style="rounded=1;whiteSpace=wrap;html=1;shadow=0;strokeWidth=1;spacing=6;spacingTop=-4;fillColor=#f8cecc;strokeColor=#b85450;verticalAlign=top;" vertex="1" parent="WIyWlLk6GJQsqaUBKTNV-1">
          <mxGeometry x="430" y="710" width="70" height="40" as="geometry" />
        </mxCell>
        <mxCell id="auCAE6yCjne6HjzLzBqj-8" value="no" style="edgeStyle=orthogonalEdgeStyle;rounded=0;orthogonalLoop=1;jettySize=auto;html=1;entryX=0.5;entryY=0;entryDx=0;entryDy=0;labelBorderColor=none;endArrow=openThin;endFill=0;exitX=0;exitY=0.5;exitDx=0;exitDy=0;" edge="1" parent="WIyWlLk6GJQsqaUBKTNV-1" source="auCAE6yCjne6HjzLzBqj-10" target="auCAE6yCjne6HjzLzBqj-13">
          <mxGeometry x="-0.5789" y="-10" relative="1" as="geometry">
            <mxPoint as="offset" />
          </mxGeometry>
        </mxCell>
        <mxCell id="auCAE6yCjne6HjzLzBqj-9" value="yes" style="edgeStyle=orthogonalEdgeStyle;rounded=0;orthogonalLoop=1;jettySize=auto;html=1;labelBorderColor=none;endArrow=openThin;endFill=0;entryX=0.5;entryY=0;entryDx=0;entryDy=0;" edge="1" parent="WIyWlLk6GJQsqaUBKTNV-1" source="auCAE6yCjne6HjzLzBqj-10" target="auCAE6yCjne6HjzLzBqj-15">
          <mxGeometry x="-0.4286" y="10" relative="1" as="geometry">
            <Array as="points">
              <mxPoint x="725" y="600" />
            </Array>
            <mxPoint as="offset" />
          </mxGeometry>
        </mxCell>
        <mxCell id="auCAE6yCjne6HjzLzBqj-10" value="Reject button detected" style="rhombus;whiteSpace=wrap;html=1;shadow=0;fontFamily=Helvetica;fontSize=12;align=center;strokeWidth=1;spacing=6;spacingTop=5;verticalAlign=middle;" vertex="1" parent="WIyWlLk6GJQsqaUBKTNV-1">
          <mxGeometry x="590" y="560" width="110" height="80" as="geometry" />
        </mxCell>
        <mxCell id="auCAE6yCjne6HjzLzBqj-11" value="No reject&lt;br&gt;button" style="rounded=1;whiteSpace=wrap;html=1;shadow=0;strokeWidth=1;spacing=6;spacingTop=-4;fillColor=#f8cecc;strokeColor=#b85450;verticalAlign=top;" vertex="1" parent="WIyWlLk6GJQsqaUBKTNV-1">
          <mxGeometry x="530" y="710" width="70" height="40" as="geometry" />
        </mxCell>
        <mxCell id="auCAE6yCjne6HjzLzBqj-12" value="yes" style="edgeStyle=orthogonalEdgeStyle;rounded=0;orthogonalLoop=1;jettySize=auto;html=1;labelBorderColor=none;endArrow=openThin;endFill=0;" edge="1" parent="WIyWlLk6GJQsqaUBKTNV-1" source="auCAE6yCjne6HjzLzBqj-13" target="auCAE6yCjne6HjzLzBqj-11">
          <mxGeometry x="0.6667" y="-15" relative="1" as="geometry">
            <mxPoint as="offset" />
          </mxGeometry>
        </mxCell>
        <mxCell id="auCAE6yCjne6HjzLzBqj-13" value="&lt;font style=&quot;font-size: 11px;&quot;&gt;Accept button&lt;br&gt; and AA cookies detected&lt;/font&gt;" style="rhombus;whiteSpace=wrap;html=1;shadow=0;fontFamily=Helvetica;fontSize=12;align=center;strokeWidth=1;spacing=6;spacingTop=5;verticalAlign=middle;" vertex="1" parent="WIyWlLk6GJQsqaUBKTNV-1">
          <mxGeometry x="510" y="610" width="110" height="80" as="geometry" />
        </mxCell>
        <mxCell id="auCAE6yCjne6HjzLzBqj-14" value="yes" style="edgeStyle=orthogonalEdgeStyle;rounded=0;orthogonalLoop=1;jettySize=auto;html=1;labelBorderColor=none;endArrow=openThin;endFill=0;" edge="1" parent="WIyWlLk6GJQsqaUBKTNV-1" source="auCAE6yCjne6HjzLzBqj-15" target="auCAE6yCjne6HjzLzBqj-16">
          <mxGeometry x="0.6667" y="-15" relative="1" as="geometry">
            <mxPoint as="offset" />
          </mxGeometry>
        </mxCell>
        <mxCell id="auCAE6yCjne6HjzLzBqj-15" value="&lt;font style=&quot;font-size: 11px;&quot;&gt;AA cookies&lt;br&gt; set after clicking on the button&lt;/font&gt;" style="rhombus;whiteSpace=wrap;html=1;shadow=0;fontFamily=Helvetica;fontSize=12;align=center;strokeWidth=1;spacing=6;spacingTop=0;verticalAlign=middle;" vertex="1" parent="WIyWlLk6GJQsqaUBKTNV-1">
          <mxGeometry x="670" y="610" width="110" height="80" as="geometry" />
        </mxCell>
        <mxCell id="auCAE6yCjne6HjzLzBqj-16" value="&lt;div&gt;Ignored&lt;/div&gt;&lt;div&gt;reject&lt;/div&gt;" style="rounded=1;whiteSpace=wrap;html=1;shadow=0;strokeWidth=1;spacing=6;spacingTop=-4;fillColor=#f8cecc;strokeColor=#b85450;verticalAlign=top;" vertex="1" parent="WIyWlLk6GJQsqaUBKTNV-1">
          <mxGeometry x="690" y="710" width="70" height="40" as="geometry" />
        </mxCell>
        <mxCell id="auCAE6yCjne6HjzLzBqj-17" value="yes" style="edgeStyle=orthogonalEdgeStyle;rounded=0;orthogonalLoop=1;jettySize=auto;html=1;entryX=0.5;entryY=0;entryDx=0;entryDy=0;labelBorderColor=none;endArrow=openThin;endFill=0;exitX=1;exitY=0.5;exitDx=0;exitDy=0;" edge="1" parent="WIyWlLk6GJQsqaUBKTNV-1" source="auCAE6yCjne6HjzLzBqj-18" target="auCAE6yCjne6HjzLzBqj-22">
          <mxGeometry x="-0.4286" y="10" relative="1" as="geometry">
            <mxPoint as="offset" />
          </mxGeometry>
        </mxCell>
        <mxCell id="auCAE6yCjne6HjzLzBqj-18" value="Close/Save&lt;br&gt;button detected" style="rhombus;whiteSpace=wrap;html=1;shadow=0;fontFamily=Helvetica;fontSize=12;align=center;strokeWidth=1;spacing=6;spacingTop=-4;verticalAlign=middle;" vertex="1" parent="WIyWlLk6GJQsqaUBKTNV-1">
          <mxGeometry x="750" y="560" width="110" height="80" as="geometry" />
        </mxCell>
        <mxCell id="auCAE6yCjne6HjzLzBqj-19" value="&lt;font style=&quot;font-size: 11px;&quot;&gt;yes&lt;/font&gt;&lt;font style=&quot;font-size: 11px;&quot;&gt;&lt;br&gt;close&lt;/font&gt;" style="edgeStyle=orthogonalEdgeStyle;rounded=0;orthogonalLoop=1;jettySize=auto;html=1;labelBorderColor=none;fontSize=9;endArrow=openThin;endFill=0;exitX=1;exitY=0.5;exitDx=0;exitDy=0;entryX=0.5;entryY=0;entryDx=0;entryDy=0;" edge="1" parent="WIyWlLk6GJQsqaUBKTNV-1" source="auCAE6yCjne6HjzLzBqj-22" target="auCAE6yCjne6HjzLzBqj-23">
          <mxGeometry y="20" relative="1" as="geometry">
            <mxPoint as="offset" />
            <Array as="points">
              <mxPoint x="940" y="680" />
              <mxPoint x="940" y="680" />
            </Array>
          </mxGeometry>
        </mxCell>
        <mxCell id="auCAE6yCjne6HjzLzBqj-20" style="edgeStyle=orthogonalEdgeStyle;rounded=0;orthogonalLoop=1;jettySize=auto;html=1;entryX=0.5;entryY=0;entryDx=0;entryDy=0;" edge="1" parent="WIyWlLk6GJQsqaUBKTNV-1" source="auCAE6yCjne6HjzLzBqj-22" target="auCAE6yCjne6HjzLzBqj-30">
          <mxGeometry relative="1" as="geometry">
            <Array as="points">
              <mxPoint x="825" y="650" />
            </Array>
          </mxGeometry>
        </mxCell>
        <mxCell id="auCAE6yCjne6HjzLzBqj-21" value="yes&lt;br&gt;save" style="edgeLabel;html=1;align=center;verticalAlign=middle;resizable=0;points=[];" connectable="0" vertex="1" parent="auCAE6yCjne6HjzLzBqj-20">
          <mxGeometry x="-0.12" relative="1" as="geometry">
            <mxPoint x="-15" y="6" as="offset" />
          </mxGeometry>
        </mxCell>
        <mxCell id="auCAE6yCjne6HjzLzBqj-22" value="&lt;font style=&quot;font-size: 12px;&quot;&gt;AA cookies&lt;br style=&quot;font-size: 12px;&quot;&gt; set after clicking on the button&lt;/font&gt;" style="rhombus;whiteSpace=wrap;html=1;shadow=0;fontFamily=Helvetica;fontSize=12;align=center;strokeWidth=1;spacing=6;spacingTop=0;verticalAlign=middle;" vertex="1" parent="WIyWlLk6GJQsqaUBKTNV-1">
          <mxGeometry x="830" y="610" width="110" height="80" as="geometry" />
        </mxCell>
        <mxCell id="auCAE6yCjne6HjzLzBqj-23" value="Implicit consent after close" style="rounded=1;whiteSpace=wrap;html=1;shadow=0;strokeWidth=1;spacing=6;spacingTop=-4;fillColor=#f8cecc;strokeColor=#b85450;verticalAlign=top;" vertex="1" parent="WIyWlLk6GJQsqaUBKTNV-1">
          <mxGeometry x="890" y="710" width="100" height="40" as="geometry" />
        </mxCell>
        <mxCell id="auCAE6yCjne6HjzLzBqj-24" value="&lt;font style=&quot;font-size: 11px;&quot;&gt;yes&lt;/font&gt;" style="edgeStyle=orthogonalEdgeStyle;rounded=0;orthogonalLoop=1;jettySize=auto;html=1;labelBorderColor=none;fontSize=9;endArrow=openThin;endFill=0;" edge="1" parent="WIyWlLk6GJQsqaUBKTNV-1" source="auCAE6yCjne6HjzLzBqj-25" target="auCAE6yCjne6HjzLzBqj-26">
          <mxGeometry x="-0.7143" y="-15" relative="1" as="geometry">
            <mxPoint as="offset" />
          </mxGeometry>
        </mxCell>
        <mxCell id="auCAE6yCjne6HjzLzBqj-25" value="&lt;font style=&quot;font-size: 11px;&quot;&gt;AA&lt;/font&gt;&lt;font style=&quot;font-size: 11px;&quot;&gt; cookies&lt;br style=&quot;font-size: 11px;&quot;&gt; set prior&lt;/font&gt;&lt;font style=&quot;font-size: 11px;&quot;&gt; user interaction&lt;/font&gt;" style="rhombus;whiteSpace=wrap;html=1;shadow=0;fontFamily=Helvetica;fontSize=11;align=center;strokeWidth=1;spacing=6;spacingTop=0;verticalAlign=middle;" vertex="1" parent="WIyWlLk6GJQsqaUBKTNV-1">
          <mxGeometry x="1000" y="560" width="110" height="80" as="geometry" />
        </mxCell>
        <mxCell id="auCAE6yCjne6HjzLzBqj-26" value="Implicit consent prior to interaction" style="rounded=1;whiteSpace=wrap;html=1;shadow=0;strokeWidth=1;spacing=6;spacingTop=-4;fillColor=#f8cecc;strokeColor=#b85450;verticalAlign=top;" vertex="1" parent="WIyWlLk6GJQsqaUBKTNV-1">
          <mxGeometry x="1000" y="710" width="110" height="40" as="geometry" />
        </mxCell>
        <mxCell id="auCAE6yCjne6HjzLzBqj-27" value="&lt;font style=&quot;font-size: 11px;&quot;&gt;yes&lt;/font&gt;" style="edgeStyle=orthogonalEdgeStyle;rounded=0;orthogonalLoop=1;jettySize=auto;html=1;labelBorderColor=none;fontSize=9;endArrow=openThin;endFill=0;" edge="1" parent="WIyWlLk6GJQsqaUBKTNV-1" source="auCAE6yCjne6HjzLzBqj-28" target="auCAE6yCjne6HjzLzBqj-29">
          <mxGeometry x="-0.7143" y="-15" relative="1" as="geometry">
            <mxPoint as="offset" />
          </mxGeometry>
        </mxCell>
        <mxCell id="auCAE6yCjne6HjzLzBqj-28" value="&lt;font style=&quot;font-size: 10px;&quot;&gt;AA cookies&lt;br&gt; set without purpose declaration&lt;/font&gt;" style="rhombus;whiteSpace=wrap;html=1;shadow=0;fontFamily=Helvetica;fontSize=12;align=center;strokeWidth=1;spacing=6;spacingTop=0;verticalAlign=middle;" vertex="1" parent="WIyWlLk6GJQsqaUBKTNV-1">
          <mxGeometry x="1130" y="560" width="110" height="80" as="geometry" />
        </mxCell>
        <mxCell id="auCAE6yCjne6HjzLzBqj-29" value="Undeclared purposes" style="rounded=1;whiteSpace=wrap;html=1;shadow=0;strokeWidth=1;spacing=6;spacingTop=-4;fillColor=#f8cecc;strokeColor=#b85450;verticalAlign=top;" vertex="1" parent="WIyWlLk6GJQsqaUBKTNV-1">
          <mxGeometry x="1150" y="710" width="70" height="40" as="geometry" />
        </mxCell>
        <mxCell id="auCAE6yCjne6HjzLzBqj-30" value="Ignored save/&lt;br&gt;Prefilled purposes" style="rounded=1;whiteSpace=wrap;html=1;shadow=0;strokeWidth=1;spacing=6;spacingTop=-4;fillColor=#f8cecc;strokeColor=#b85450;verticalAlign=top;" vertex="1" parent="WIyWlLk6GJQsqaUBKTNV-1">
          <mxGeometry x="770" y="710" width="110" height="40" as="geometry" />
        </mxCell>
        <mxCell id="auCAE6yCjne6HjzLzBqj-31" value="yes" style="edgeStyle=orthogonalEdgeStyle;rounded=0;orthogonalLoop=1;jettySize=auto;html=1;" edge="1" parent="WIyWlLk6GJQsqaUBKTNV-1" source="auCAE6yCjne6HjzLzBqj-32" target="auCAE6yCjne6HjzLzBqj-7">
          <mxGeometry x="-0.5" y="-15" relative="1" as="geometry">
            <mxPoint as="offset" />
          </mxGeometry>
        </mxCell>
        <mxCell id="auCAE6yCjne6HjzLzBqj-32" value="AA cookies detected" style="rhombus;whiteSpace=wrap;html=1;shadow=0;fontFamily=Helvetica;fontSize=12;align=center;strokeWidth=1;spacing=6;spacingTop=0;" vertex="1" parent="WIyWlLk6GJQsqaUBKTNV-1">
          <mxGeometry x="410" y="590" width="110" height="80" as="geometry" />
        </mxCell>
      </root>
    </mxGraphModel>
  </diagram>
</mxfile>
